# Wavefront OBJ exported by MilkShape 3D

v 9.888889 -15.083699 0.285714
v 8.549143 -15.083699 5.285714
v 4.888889 -15.083699 8.945968
v -0.111111 -15.083699 10.285714
v -5.111111 -15.083699 8.945968
v -8.771364 -15.083699 5.285714
v -10.111111 -15.083699 0.285714
v -8.771364 -15.083699 -4.714286
v -5.111111 -15.083699 -8.374539
v -0.111111 -15.083699 -9.714286
v 4.888889 -15.083699 -8.374539
v 8.549143 -15.083699 -4.714286
v -0.111111 -15.083699 0.285714
v 9.888889 -15.083699 0.285714
v 9.888889 -10.083703 0.285714
v 9.888889 -5.083700 0.285714
v 9.888889 -0.083700 0.285714
v 9.888889 4.916301 0.285714
v 9.888889 9.863238 0.285714
v 9.888889 14.965278 0.285714
v 8.549143 -15.083699 5.285714
v 8.549143 -10.083703 5.285714
v 8.549143 -5.083700 5.285714
v 8.549143 -0.083700 5.285714
v 8.549143 4.916301 5.285714
v 8.549143 9.863238 5.285714
v 8.549143 14.965278 5.285714
v 4.888889 -15.083699 8.945968
v 4.888889 -10.083703 8.945968
v 4.888889 -5.083700 8.945968
v 4.888889 -0.083700 8.945968
v 4.888889 4.916301 8.945968
v 4.888889 9.863238 8.945968
v 4.888889 14.965278 8.945968
v -0.111111 -15.083699 10.285714
v -0.111111 -10.083703 10.285714
v -0.111111 -5.083700 10.285714
v -0.111111 -0.083700 10.285714
v -0.111111 4.916301 10.285714
v -0.111111 9.863238 10.285714
v -0.111111 14.965278 10.285714
v -5.111111 -15.083699 8.945968
v -5.111111 -10.083703 8.945968
v -5.111111 -5.083700 8.945968
v -5.111111 -0.083700 8.945968
v -5.111111 4.916301 8.945968
v -5.111111 9.863238 8.945968
v -5.111111 14.965278 8.945968
v -8.771364 -15.083699 5.285714
v -8.771364 -10.083703 5.285714
v -8.771364 -5.083700 5.285714
v -8.771364 -0.083700 5.285714
v -8.771364 4.916301 5.285714
v -8.771364 9.863238 5.285714
v -8.771364 14.965278 5.285714
v -10.111111 -15.083699 0.285714
v -10.111111 -10.083703 0.285714
v -10.111111 -5.083700 0.285714
v -10.111111 -0.083700 0.285714
v -10.111111 4.916301 0.285714
v -10.111111 9.863238 0.285714
v -10.111111 14.965278 0.285714
v -8.771364 -15.083699 -4.714286
v -8.771364 -10.083703 -4.714286
v -8.771364 -5.083700 -4.714286
v -8.771364 -0.083700 -4.714286
v -8.771364 4.916301 -4.714286
v -8.771364 9.863238 -4.714286
v -8.771364 14.965278 -4.714286
v -5.111111 -15.083699 -8.374539
v -5.111111 -10.083703 -8.374539
v -5.111111 -5.083700 -8.374539
v -5.111111 -0.083700 -8.374539
v -5.111111 4.916301 -8.374539
v -5.111111 9.863238 -8.374539
v -5.111111 14.965278 -8.374539
v -0.111111 -15.083699 -9.714286
v -0.111111 -10.083703 -9.714286
v -0.111111 -5.083700 -9.714286
v -0.111111 -0.083700 -9.714286
v -0.111111 4.916301 -9.714286
v -0.111111 9.863238 -9.714286
v -0.111111 14.965278 -9.714286
v 4.888889 -15.083699 -8.374539
v 4.888889 -10.083703 -8.374539
v 4.888889 -5.083700 -8.374539
v 4.888889 -0.083700 -8.374539
v 4.888889 4.916301 -8.374539
v 4.888889 9.863238 -8.374539
v 4.888889 14.965278 -8.374539
v 8.549143 -15.083699 -4.714286
v 8.549143 -10.083703 -4.714286
v 8.549143 -5.083700 -4.714286
v 8.549143 -0.083700 -4.714286
v 8.549143 4.916301 -4.714286
v 8.549143 9.863238 -4.714286
v 8.549143 14.965278 -4.714286
v 7.263427 24.822418 0.285714
v 6.103173 24.152546 5.285714
v 2.933300 22.322418 8.945968
v -1.396827 19.822422 10.285714
v -5.726954 17.322422 8.945968
v -8.896826 15.492293 5.285714
v -10.057080 14.822419 0.285714
v -8.896826 15.492293 -4.714286
v -5.726954 17.322422 -8.374539
v -1.396827 19.822422 -9.714286
v 2.933300 22.322418 -8.374539
v 6.103173 24.152546 -4.714286
v -1.396827 19.822422 0.285714
# 110 vertices

vt 0.000000 1.000000
vt 0.000000 0.000000
vt 0.000000 0.166667
vt 0.083333 0.166667
vt 0.083333 0.000000
vt 0.000000 0.333333
vt 0.083333 0.333333
vt 0.000000 0.500000
vt 0.083333 0.500000
vt 0.000000 0.666667
vt 0.083333 0.666667
vt 0.000000 0.833333
vt 0.083333 0.833333
vt 0.083333 1.000000
vt 0.166667 0.000000
vt 0.166667 0.166667
vt 0.166667 0.333333
vt 0.166667 0.500000
vt 0.166667 0.666667
vt 0.166667 0.833333
vt 0.166667 1.000000
vt 0.250000 0.166667
vt 0.250000 0.000000
vt 0.250000 0.333333
vt 0.250000 0.500000
vt 0.250000 0.666667
vt 0.250000 0.833333
vt 0.250000 1.000000
vt 0.333333 0.000000
vt 0.333333 0.166667
vt 0.333333 0.333333
vt 0.333333 0.500000
vt 0.333333 0.666667
vt 0.333333 0.833333
vt 0.333333 1.000000
vt 0.416667 0.166667
vt 0.416667 0.000000
vt 0.416667 0.333333
vt 0.416667 0.500000
vt 0.416667 0.666667
vt 0.416667 0.833333
vt 0.416667 1.000000
vt 0.500000 0.000000
vt 0.500000 0.166667
vt 0.500000 0.333333
vt 0.500000 0.500000
vt 0.500000 0.666667
vt 0.500000 0.833333
vt 0.500000 1.000000
vt 0.583333 0.166667
vt 0.583333 0.000000
vt 0.583333 0.333333
vt 0.583333 0.500000
vt 0.583333 0.666667
vt 0.583333 0.833333
vt 0.583333 1.000000
vt 0.666667 0.000000
vt 0.666667 0.166667
vt 0.666667 0.333333
vt 0.666667 0.500000
vt 0.666667 0.666667
vt 0.666667 0.833333
vt 0.666667 1.000000
vt 0.750000 0.166667
vt 0.750000 0.000000
vt 0.750000 0.333333
vt 0.750000 0.500000
vt 0.750000 0.666667
vt 0.750000 0.833333
vt 0.750000 1.000000
vt 0.833333 0.000000
vt 0.833333 0.166667
vt 0.833333 0.333333
vt 0.833333 0.500000
vt 0.833333 0.666667
vt 0.833333 0.833333
vt 0.833333 1.000000
vt 0.916667 0.166667
vt 0.916667 0.000000
vt 0.916667 0.333333
vt 0.916667 0.500000
vt 0.916667 0.666667
vt 0.916667 0.833333
vt 0.916667 1.000000
vt 1.000000 0.000000
vt 1.000000 0.166667
vt 1.000000 0.333333
vt 1.000000 0.500000
vt 1.000000 0.666667
vt 1.000000 0.833333
vt 1.000000 1.000000
# 91 texture coordinates

vn 0.000000 -1.000000 0.000000
vn 1.000000 0.000000 0.000000
vn 0.866025 0.000000 0.500000
vn 0.500000 0.000000 0.866025
vn 0.000000 0.000000 1.000000
vn -0.500000 0.000000 0.866025
vn -0.866025 0.000000 0.500000
vn -1.000000 0.000000 0.000000
vn -0.866025 0.000000 -0.500000
vn -0.500000 0.000000 -0.866025
vn -0.000000 0.000000 -1.000000
vn 0.500000 0.000000 -0.866025
vn 0.866025 0.000000 -0.500000
vn -0.500000 0.866026 0.000000
# 14 normals

g Cylinder03
s 2
f 1/1/1 2/1/1 13/1/1
f 2/1/1 3/1/1 13/1/1
f 3/1/1 4/1/1 13/1/1
f 4/1/1 5/1/1 13/1/1
f 5/1/1 6/1/1 13/1/1
f 6/1/1 7/1/1 13/1/1
f 7/1/1 8/1/1 13/1/1
f 8/1/1 9/1/1 13/1/1
f 9/1/1 10/1/1 13/1/1
f 10/1/1 11/1/1 13/1/1
f 11/1/1 12/1/1 13/1/1
f 12/1/1 1/1/1 13/1/1
# 12 triangles in group

g can
s 1
f 14/2/2 15/3/2 22/4/3
f 14/2/2 22/4/3 21/5/3
f 15/3/2 16/6/2 22/4/3
f 16/6/2 23/7/3 22/4/3
f 16/6/2 17/8/2 24/9/3
f 16/6/2 24/9/3 23/7/3
f 17/8/2 18/10/2 24/9/3
f 18/10/2 25/11/3 24/9/3
f 18/10/2 19/12/2 26/13/3
f 18/10/2 26/13/3 25/11/3
f 19/12/2 20/1/2 26/13/3
f 20/1/2 27/14/3 26/13/3
f 21/5/3 22/4/3 28/15/4
f 22/4/3 29/16/4 28/15/4
f 22/4/3 23/7/3 30/17/4
f 22/4/3 30/17/4 29/16/4
f 23/7/3 24/9/3 30/17/4
f 24/9/3 31/18/4 30/17/4
f 24/9/3 25/11/3 32/19/4
f 24/9/3 32/19/4 31/18/4
f 25/11/3 26/13/3 32/19/4
f 26/13/3 33/20/4 32/19/4
f 26/13/3 27/14/3 34/21/4
f 26/13/3 34/21/4 33/20/4
f 28/15/4 29/16/4 36/22/5
f 28/15/4 36/22/5 35/23/5
f 29/16/4 30/17/4 36/22/5
f 30/17/4 37/24/5 36/22/5
f 30/17/4 31/18/4 38/25/5
f 30/17/4 38/25/5 37/24/5
f 31/18/4 32/19/4 38/25/5
f 32/19/4 39/26/5 38/25/5
f 32/19/4 33/20/4 40/27/5
f 32/19/4 40/27/5 39/26/5
f 33/20/4 34/21/4 40/27/5
f 34/21/4 41/28/5 40/27/5
f 35/23/5 36/22/5 42/29/6
f 36/22/5 43/30/6 42/29/6
f 36/22/5 37/24/5 44/31/6
f 36/22/5 44/31/6 43/30/6
f 37/24/5 38/25/5 44/31/6
f 38/25/5 45/32/6 44/31/6
f 38/25/5 39/26/5 46/33/6
f 38/25/5 46/33/6 45/32/6
f 39/26/5 40/27/5 46/33/6
f 40/27/5 47/34/6 46/33/6
f 40/27/5 41/28/5 48/35/6
f 40/27/5 48/35/6 47/34/6
f 42/29/6 43/30/6 50/36/7
f 42/29/6 50/36/7 49/37/7
f 43/30/6 44/31/6 50/36/7
f 44/31/6 51/38/7 50/36/7
f 44/31/6 45/32/6 52/39/7
f 44/31/6 52/39/7 51/38/7
f 45/32/6 46/33/6 52/39/7
f 46/33/6 53/40/7 52/39/7
f 46/33/6 47/34/6 54/41/7
f 46/33/6 54/41/7 53/40/7
f 47/34/6 48/35/6 54/41/7
f 48/35/6 55/42/7 54/41/7
f 49/37/7 50/36/7 56/43/8
f 50/36/7 57/44/8 56/43/8
f 50/36/7 51/38/7 58/45/8
f 50/36/7 58/45/8 57/44/8
f 51/38/7 52/39/7 58/45/8
f 52/39/7 59/46/8 58/45/8
f 52/39/7 53/40/7 60/47/8
f 52/39/7 60/47/8 59/46/8
f 53/40/7 54/41/7 60/47/8
f 54/41/7 61/48/8 60/47/8
f 54/41/7 55/42/7 62/49/8
f 54/41/7 62/49/8 61/48/8
f 56/43/8 57/44/8 64/50/9
f 56/43/8 64/50/9 63/51/9
f 57/44/8 58/45/8 64/50/9
f 58/45/8 65/52/9 64/50/9
f 58/45/8 59/46/8 66/53/9
f 58/45/8 66/53/9 65/52/9
f 59/46/8 60/47/8 66/53/9
f 60/47/8 67/54/9 66/53/9
f 60/47/8 61/48/8 68/55/9
f 60/47/8 68/55/9 67/54/9
f 61/48/8 62/49/8 68/55/9
f 62/49/8 69/56/9 68/55/9
f 63/51/9 64/50/9 70/57/10
f 64/50/9 71/58/10 70/57/10
f 64/50/9 65/52/9 72/59/10
f 64/50/9 72/59/10 71/58/10
f 65/52/9 66/53/9 72/59/10
f 66/53/9 73/60/10 72/59/10
f 66/53/9 67/54/9 74/61/10
f 66/53/9 74/61/10 73/60/10
f 67/54/9 68/55/9 74/61/10
f 68/55/9 75/62/10 74/61/10
f 68/55/9 69/56/9 76/63/10
f 68/55/9 76/63/10 75/62/10
f 70/57/10 71/58/10 78/64/11
f 70/57/10 78/64/11 77/65/11
f 71/58/10 72/59/10 78/64/11
f 72/59/10 79/66/11 78/64/11
f 72/59/10 73/60/10 80/67/11
f 72/59/10 80/67/11 79/66/11
f 73/60/10 74/61/10 80/67/11
f 74/61/10 81/68/11 80/67/11
f 74/61/10 75/62/10 82/69/11
f 74/61/10 82/69/11 81/68/11
f 75/62/10 76/63/10 82/69/11
f 76/63/10 83/70/11 82/69/11
f 77/65/11 78/64/11 84/71/12
f 78/64/11 85/72/12 84/71/12
f 78/64/11 79/66/11 86/73/12
f 78/64/11 86/73/12 85/72/12
f 79/66/11 80/67/11 86/73/12
f 80/67/11 87/74/12 86/73/12
f 80/67/11 81/68/11 88/75/12
f 80/67/11 88/75/12 87/74/12
f 81/68/11 82/69/11 88/75/12
f 82/69/11 89/76/12 88/75/12
f 82/69/11 83/70/11 90/77/12
f 82/69/11 90/77/12 89/76/12
f 84/71/12 85/72/12 92/78/13
f 84/71/12 92/78/13 91/79/13
f 85/72/12 86/73/12 92/78/13
f 86/73/12 93/80/13 92/78/13
f 86/73/12 87/74/12 94/81/13
f 86/73/12 94/81/13 93/80/13
f 87/74/12 88/75/12 94/81/13
f 88/75/12 95/82/13 94/81/13
f 88/75/12 89/76/12 96/83/13
f 88/75/12 96/83/13 95/82/13
f 89/76/12 90/77/12 96/83/13
f 90/77/12 97/84/13 96/83/13
f 91/79/13 92/78/13 14/85/2
f 92/78/13 15/86/2 14/85/2
f 92/78/13 93/80/13 16/87/2
f 92/78/13 16/87/2 15/86/2
f 93/80/13 94/81/13 16/87/2
f 94/81/13 17/88/2 16/87/2
f 94/81/13 95/82/13 18/89/2
f 94/81/13 18/89/2 17/88/2
f 95/82/13 96/83/13 18/89/2
f 96/83/13 19/90/2 18/89/2
f 96/83/13 97/84/13 20/91/2
f 96/83/13 20/91/2 19/90/2
# 144 triangles in group

g Regroup05
s 2
f 98/1/14 110/1/14 99/1/14
f 99/1/14 110/1/14 100/1/14
f 100/1/14 110/1/14 101/1/14
f 101/1/14 110/1/14 102/1/14
f 102/1/14 110/1/14 103/1/14
f 103/1/14 110/1/14 104/1/14
f 104/1/14 110/1/14 105/1/14
f 105/1/14 110/1/14 106/1/14
f 106/1/14 110/1/14 107/1/14
f 107/1/14 110/1/14 108/1/14
f 108/1/14 110/1/14 109/1/14
f 109/1/14 110/1/14 98/1/14
# 12 triangles in group

# 168 triangles total

