# Wavefront OBJ exported by MilkShape 3D

mtllib mynewcan.mtl

v 20.000000 -0.117920 -0.106760
v 20.000000 -0.084588 -0.106762
v 20.000000 50.082085 -0.106762
v 17.320507 -0.117920 9.893240
v 17.320507 -0.084588 9.893238
v 17.320507 50.082085 9.893238
v 10.000000 -0.117920 17.213747
v 10.000000 -0.084588 17.213745
v 10.000000 50.082085 17.213745
v 0.000000 -0.117920 19.893240
v 0.000000 -0.084588 19.893238
v 0.000000 50.082085 19.893238
v -10.000000 -0.117920 17.213747
v -10.000000 -0.084588 17.213745
v -10.000000 50.082085 17.213745
v -17.320507 -0.117920 9.893240
v -17.320507 -0.084588 9.893238
v -17.320507 50.082085 9.893238
v -20.000000 -0.117920 -0.106760
v -20.000000 -0.084588 -0.106762
v -20.000000 50.082085 -0.106762
v -17.320507 -0.117920 -10.106760
v -17.320507 -0.084588 -10.106762
v -17.320507 50.082085 -10.106762
v -10.000000 -0.117920 -17.427267
v -10.000000 -0.084588 -17.427269
v -10.000000 50.082085 -17.427269
v -0.000000 -0.117920 -20.106760
v -0.000000 -0.084588 -20.106762
v -0.000000 50.082085 -20.106762
v 10.000000 -0.117920 -17.427267
v 10.000000 -0.084588 -17.427269
v 10.000000 50.082085 -17.427269
v 17.320507 -0.117920 -10.106760
v 17.320507 -0.084588 -10.106762
v 17.320507 50.082085 -10.106762
v 0.000000 50.082085 -0.106762
v 0.000000 -0.117920 -0.106760
# 38 vertices

vt 1.000000 0.000000
vt 0.933013 0.000000
vt 0.500000 0.000000
vt 1.000000 1.000000
vt 0.500000 1.000000
vt 0.933013 1.000000
vt 1.000000 0.833333
vt 0.933013 0.833333
vt 0.750000 0.000000
vt 0.750000 1.000000
vt 0.750000 0.833333
vt 0.500000 0.833333
vt 0.250000 0.000000
vt 0.250000 1.000000
vt 0.250000 0.833333
vt 0.066987 0.000000
vt 0.066987 1.000000
vt 0.066987 0.833333
vt 0.000000 0.000000
vt 0.000000 1.000000
vt 0.000000 0.833333
# 21 texture coordinates

vn 0.000000 -1.000000 0.000000
vn 0.000000 1.000000 0.000000
vn 1.000000 0.000000 0.000000
vn 0.866025 0.000000 0.500000
vn 0.500000 0.000000 0.866025
vn 0.000000 0.000000 1.000000
vn -0.500000 0.000000 0.866025
vn -0.866025 0.000000 0.500000
vn -1.000000 0.000000 0.000000
vn -0.866025 0.000000 -0.500000
vn -0.500000 0.000000 -0.866025
vn 0.000000 0.000000 -1.000000
vn 0.500000 0.000000 -0.866025
vn 0.866025 0.000000 -0.500000
# 14 normals

g Cylinder05
usemtl label
s 2
f 1/1/1 4/2/1 38/3/1
f 3/4/2 37/5/2 6/6/2
s 1
f 2/7/3 3/4/3 5/8/4
f 3/4/3 6/6/4 5/8/4
s 2
f 4/2/1 7/9/1 38/3/1
f 6/6/2 37/5/2 9/10/2
s 1
f 5/8/4 6/6/4 9/10/5
f 5/8/4 9/10/5 8/11/5
s 2
f 7/9/1 10/3/1 38/3/1
f 9/10/2 37/5/2 12/5/2
s 1
f 8/11/5 9/10/5 11/12/6
f 9/10/5 12/5/6 11/12/6
s 2
f 10/3/1 13/13/1 38/3/1
f 12/5/2 37/5/2 15/14/2
s 1
f 11/12/6 12/5/6 15/14/7
f 11/12/6 15/14/7 14/15/7
s 2
f 13/13/1 16/16/1 38/3/1
f 15/14/2 37/5/2 18/17/2
s 1
f 14/15/7 15/14/7 17/18/8
f 15/14/7 18/17/8 17/18/8
s 2
f 16/16/1 19/19/1 38/3/1
f 18/17/2 37/5/2 21/20/2
s 1
f 17/18/8 18/17/8 21/20/9
f 17/18/8 21/20/9 20/21/9
s 2
f 19/19/1 22/16/1 38/3/1
f 21/20/2 37/5/2 24/17/2
s 1
f 20/21/9 21/20/9 23/18/10
f 21/20/9 24/17/10 23/18/10
s 2
f 22/16/1 25/13/1 38/3/1
f 24/17/2 37/5/2 27/14/2
s 1
f 23/18/10 24/17/10 27/14/11
f 23/18/10 27/14/11 26/15/11
s 2
f 25/13/1 28/3/1 38/3/1
f 27/14/2 37/5/2 30/5/2
s 1
f 26/15/11 27/14/11 29/12/12
f 27/14/11 30/5/12 29/12/12
s 2
f 28/3/1 31/9/1 38/3/1
f 30/5/2 37/5/2 33/10/2
s 1
f 29/12/12 30/5/12 33/10/13
f 29/12/12 33/10/13 32/11/13
s 2
f 31/9/1 34/2/1 38/3/1
f 33/10/2 37/5/2 36/6/2
s 1
f 32/11/13 33/10/13 35/8/14
f 33/10/13 36/6/14 35/8/14
s 2
f 34/2/1 1/1/1 38/3/1
f 36/6/2 37/5/2 3/4/2
s 1
f 35/8/14 36/6/14 3/4/3
f 35/8/14 3/4/3 2/7/3
# 48 triangles in group

# 48 triangles total

