# file generated by UVMapper
# NumVerts/NumTVerts/NumVNormals/NumFacets   50/52/14/48
# NumGroups/NumMaterials/NumRegions   2/0/0
# x/y/color/ppu   1024/861/2/50.00000000

v  7.50000000 -12.25000000  0.00000000
v  7.50000000  8.25000000  0.00000000
v  6.49519110 -12.25000000  3.75000000
v  6.49519110  8.25000000  3.75000000
v  3.75000000 -12.25000000  6.49519110
v  3.75000000  8.25000000  6.49519110
v  0.00000000 -12.25000000  7.50000000
v  0.00000000  8.25000000  7.50000000
v -3.75000000 -12.25000000  6.49519110
v -3.75000000  8.25000000  6.49519110
v -6.49519110 -12.25000000  3.75000000
v -6.49519110  8.25000000  3.75000000
v -7.50000000 -12.25000000  0.00000000
v -7.50000000  8.25000000  0.00000000
v -6.49519110 -12.25000000 -3.75000000
v -6.49519110  8.25000000 -3.75000000
v -3.75000000 -12.25000000 -6.49519110
v -3.75000000  8.25000000 -6.49519110
v  0.00000000 -12.25000000 -7.50000000
v  0.00000000  8.25000000 -7.50000000
v  3.75000000 -12.25000000 -6.49519110
v  3.75000000  8.25000000 -6.49519110
v  6.49519110 -12.25000000 -3.75000000
v  6.49519110  8.25000000 -3.75000000
v  7.50000000 -12.25000000  0.00000000
v  6.49519110 -12.25000000  3.75000000
v  0.00000000 -12.25000000  0.00000000
v  7.50000000  8.25000000  0.00000000
v  0.00000000  8.25000000  0.00000000
v  6.49519110  8.25000000  3.75000000
v  3.75000000 -12.25000000  6.49519110
v  3.75000000  8.25000000  6.49519110
v  0.00000000 -12.25000000  7.50000000
v  0.00000000  8.25000000  7.50000000
v -3.75000000 -12.25000000  6.49519110
v -3.75000000  8.25000000  6.49519110
v -6.49519110 -12.25000000  3.75000000
v -6.49519110  8.25000000  3.75000000
v -7.50000000 -12.25000000  0.00000000
v -7.50000000  8.25000000  0.00000000
v -6.49519110 -12.25000000 -3.75000000
v -6.49519110  8.25000000 -3.75000000
v -3.75000000 -12.25000000 -6.49519110
v -3.75000000  8.25000000 -6.49519110
v  0.00000000 -12.25000000 -7.50000000
v  0.00000000  8.25000000 -7.50000000
v  3.75000000 -12.25000000 -6.49519110
v  3.75000000  8.25000000 -6.49519110
v  6.49519110 -12.25000000 -3.75000000
v  6.49519110  8.25000000 -3.75000000

vt  0.62011844  0.67353958
vt  0.62011844  0.32646039
vt  0.54976475  0.32646039
vt  0.54976475  0.67353958
vt  0.47941107  0.32646039
vt  0.47941107  0.67353958
vt  0.40905744  0.67353958
vt  0.40905744  0.32646039
vt  0.33870372  0.67353958
vt  0.33870372  0.32646039
vt  0.26835006  0.32646039
vt  0.26835006  0.67353958
vt  0.19799641  0.67353958
vt  0.19799641  0.32646039
vt  0.12764272  0.67353958
vt  0.12764272  0.32646039
vt  0.05728908  0.32646039
vt  0.05728908  0.67353958
vt  0.90153313  0.67353958
vt  0.90153313  0.32646039
vt  0.83117944  0.32646039
vt  0.83117944  0.67353958
vt  0.76082575  0.67353958
vt  0.69047207  0.67353958
vt  0.76082575  0.32646039
vt  0.69047207  0.32646039
vt  0.61101484  0.76224732
vt  0.61697876  0.24481045
vt  0.56011409  0.30026877
vt  0.55611104  0.70366704
vt  0.48243552  0.32056791
vt  0.48111108  0.68222517
vt  0.40611109  0.70366704
vt  0.40475702  0.30026877
vt  0.34789237  0.24481045
vt  0.32707846  0.16905299
vt  0.35120726  0.76224732
vt  0.33111107  0.84226942
vt  0.35120726  0.92229152
vt  0.34789237  0.09329551
vt  0.40475702  0.03783719
vt  0.48243552  0.16905299
vt  0.40611109  0.98087186
vt  0.48243552  0.01753805
vt  0.56011409  0.03783719
vt  0.48111108  1.00231373
vt  0.55611104  0.98087186
vt  0.61101484  0.92229152
vt  0.61697876  0.09329551
vt  0.63779271  0.16905299
vt  0.48111108  0.84226942
vt  0.63111097  0.84226942

vn  1.00000000  0.00000000  0.00000000
vn  0.86602497  0.00000000  0.50000000
vn  0.50000000  0.00000000  0.86602497
vn  0.00000000  0.00000000  1.00000000
vn -0.50000000  0.00000000  0.86602497
vn -0.86602497  0.00000000  0.50000000
vn -1.00000000  0.00000000  0.00000000
vn -0.86602497  0.00000000 -0.50000000
vn -0.50000000  0.00000000 -0.86602497
vn  0.00000000  0.00000000 -1.00000000
vn  0.50000000  0.00000000 -0.86602497
vn  0.86602497  0.00000000 -0.50000000
vn  0.00000000 -1.00000000  0.00000000
vn  0.00000000  1.00000000  0.00000000

g Cylinder02
s 1















f 1/26/1 2/24/1 3/2/2
f 2/24/1 4/1/2 3/2/2
f 3/2/2 4/1/2 6/4/3
f 3/2/2 6/4/3 5/3/3
f 5/3/3 6/4/3 7/5/4
f 6/4/3 8/6/4 7/5/4
f 7/5/4 8/6/4 10/7/5
f 7/5/4 10/7/5 9/8/5
f 9/8/5 10/7/5 11/10/6
f 10/7/5 12/9/6 11/10/6
f 11/10/6 12/9/6 14/12/7
f 11/10/6 14/12/7 13/11/7
f 13/11/7 14/12/7 15/14/8
f 14/12/7 16/13/8 15/14/8
f 15/14/8 16/13/8 18/15/9
f 15/14/8 18/15/9 17/16/9
f 17/16/9 18/15/9 19/17/10
f 18/15/9 20/18/10 19/17/10
f 19/20/10 20/19/10 22/22/11
f 19/20/10 22/22/11 21/21/11
f 21/21/11 22/22/11 23/25/12
f 22/22/11 24/23/12 23/25/12
f 23/25/12 24/23/12 2/24/1
f 23/25/12 2/24/1 1/26/1
g Regroup01
s 2
f 25/50/13 26/28/13 27/42/13
f 28/52/14 29/51/14 30/27/14
f 26/28/13 31/29/13 27/42/13
f 30/27/14 29/51/14 32/30/14
f 31/29/13 33/31/13 27/42/13
f 32/30/14 29/51/14 34/32/14
f 33/31/13 35/34/13 27/42/13
f 34/32/14 29/51/14 36/33/14
f 35/34/13 37/35/13 27/42/13
f 36/33/14 29/51/14 38/37/14
f 37/35/13 39/36/13 27/42/13
f 38/37/14 29/51/14 40/38/14
f 39/36/13 41/40/13 27/42/13
f 40/38/14 29/51/14 42/39/14
f 41/40/13 43/41/13 27/42/13
f 42/39/14 29/51/14 44/43/14
f 43/41/13 45/44/13 27/42/13
f 44/43/14 29/51/14 46/46/14
f 45/44/13 47/45/13 27/42/13
f 46/46/14 29/51/14 48/47/14
f 47/45/13 49/49/13 27/42/13
f 48/47/14 29/51/14 50/48/14
f 49/49/13 25/50/13 27/42/13
f 50/48/14 29/51/14 28/52/14
